# xmcd
# 
# Track frame offsets:
#     150
#     18020
#     28925
#     42230
#     55294
#     80718
#     95713
#     114379
#     126351
#     137438
#     178625
#     200187
#     217341
# 
# Disc length: 3147
# 
# Revision: 3
# Processed by: cddbd v1.5.2PL0 Copyright (c) Steve Scherf et al.
# Submitted via: fre:ac v1.0.31
# 
DISCID=c20c490d
DTITLE=BLUES BOX 3 - The Story of the Blues - [CD 3/3)
DYEAR=2003
DGENRE=Blues
TTITLE0=Blues For Mama
TTITLE1=Shapes Of Things
TTITLE2=Baby Won't You Please Come Home
TTITLE3=Dust My Broom
TTITLE4=Many Rivers To Cross
TTITLE5=Blues For Carlos
TTITLE6=C. C. Rider
TTITLE7=Lovin' In My Baby's Eyes
TTITLE8=Gangster Of Love
TTITLE9=Got The Blues
TTITLE10=Fascinating Lover
TTITLE11=Hold Me
TTITLE12=We Gotta Get Out Of This Place
EXTD=ID3G: 0
EXTT0=
EXTT1=
EXTT2=
EXTT3=
EXTT4=
EXTT5=
EXTT6=
EXTT7=
EXTT8=
EXTT9=
EXTT10=
EXTT11=
EXTT12=
PLAYORDER=
